
<svg style="display:block;margin:auto;" xmlns="http://www.w3.org/2000/svg"
 width="608.000000pt" height="608.000000pt" viewBox="0 0 608.000000 608.000000"
 preserveAspectRatio="xMidYMid meet">
 <g transform="translate(0.000000,607.00000) scale(0.100000,-0.100000)"
fill="#000000">
<path d="M2700 5819 c-180 -21 -434 -86 -695 -178 -11 -4 -112 -53 -225 -110
-268 -133 -441 -255 -659 -463 -86 -82 -176 -173 -201 -203 -112 -134 -177
-220 -217 -282 -83 -132 -151 -249 -172 -293 -66 -145 -136 -314 -158 -384
-14 -45 -29 -90 -33 -101 -13 -31 -78 -398 -90 -500 -13 -116 -13 -464 0 -580
18 -155 69 -415 107 -535 97 -311 284 -680 435 -856 16 -17 28 -34 28 -38 0
-10 88 -116 150 -181 32 -33 69 -72 81 -86 43 -48 264 -237 335 -286 201 -139
274 -183 439 -263 227 -111 527 -207 755 -240 41 -6 98 -16 125 -21 83 -17
534 -24 633 -10 228 32 518 95 607 132 17 7 34 11 39 10 4 -1 14 4 22 10 8 6
14 8 14 4 0 -4 6 -3 13 2 6 6 24 13 39 17 15 3 119 51 230 106 223 109 433
245 568 368 41 38 88 77 104 87 37 25 276 284 276 301 0 6 7 14 15 18 8 3 15
12 15 21 0 8 4 15 8 15 27 0 273 391 317 503 13 34 41 103 63 152 21 50 54
133 71 185 40 117 107 445 121 589 13 135 13 422 0 571 -22 253 -108 600 -203
817 -19 43 -47 107 -62 143 -23 58 -52 106 -180 305 -65 102 -81 124 -136 191
-30 38 -60 76 -65 86 -18 33 -235 245 -329 323 -53 44 -105 88 -113 98 -9 9
-20 17 -25 17 -5 0 -34 20 -65 43 -31 24 -79 57 -107 72 -27 16 -54 35 -58 42
-4 7 -14 13 -21 13 -7 0 -53 23 -102 51 -132 76 -242 125 -404 179 -219 73
-414 119 -595 140 -107 12 -588 11 -695 -1z m519 -179 c178 -8 249 -16 340
-36 146 -33 289 -75 416 -123 55 -21 120 -46 145 -55 77 -27 370 -199 480
-280 211 -157 356 -296 525 -505 33 -40 65 -80 70 -89 6 -9 13 -21 18 -26 92
-127 248 -427 325 -626 44 -115 101 -358 128 -545 24 -166 24 -516 1 -677 -52
-353 -176 -723 -320 -953 -28 -44 -73 -116 -101 -161 -28 -44 -80 -118 -116
-165 -78 -101 -340 -363 -436 -436 -153 -117 -242 -179 -289 -202 -28 -13 -57
-28 -65 -32 -182 -99 -265 -140 -310 -154 -79 -24 -110 -37 -110 -44 0 -4 -8
-7 -19 -8 -10 -1 -63 -15 -117 -32 -412 -127 -893 -141 -1309 -40 -161 40
-423 133 -565 201 -80 38 -152 73 -160 78 -84 50 -115 70 -176 116 -39 30 -73
54 -77 54 -8 0 -18 8 -156 126 -170 147 -379 378 -450 497 -13 23 -36 57 -49
75 -57 75 -225 413 -271 545 -35 100 -92 332 -116 469 -23 130 -34 384 -25
568 8 158 51 437 76 497 8 17 14 40 14 51 0 47 137 390 213 531 22 42 57 101
77 131 21 30 55 82 76 115 117 183 431 505 623 640 39 28 84 60 99 72 16 12
48 32 73 45 24 13 99 55 166 92 67 37 152 79 190 92 386 141 528 175 808 193
61 4 119 8 130 9 11 1 121 -3 244 -8z"/></g><g transform="translate(0.000000,608.000000) scale(0.100000,-0.100000)"
fill="#000000">
<path d="M3230 4716 c0 -7 -7 -19 -15 -26 -8 -7 -15 -21 -15 -31 0 -12 -7 -19
-20 -19 -16 0 -20 -7 -20 -34 0 -18 -8 -44 -18 -57 -22 -29 -127 -202 -162
-267 -14 -26 -27 -49 -30 -52 -3 -3 -16 -27 -30 -55 -14 -27 -36 -65 -49 -85
-42 -62 -146 -234 -159 -263 -6 -15 -23 -32 -37 -39 -19 -9 -22 -14 -14 -25 9
-10 8 -13 -4 -13 -20 0 -39 -33 -31 -53 7 -19 -23 -67 -42 -67 -8 0 -14 -9
-14 -21 0 -16 -37 -93 -57 -118 -2 -3 -13 4 -24 15 l-20 21 20 34 c12 19 25
44 31 56 5 12 25 46 45 74 19 28 35 57 35 65 0 55 -99 -57 -139 -158 l-10 -28
-27 24 c-42 38 -52 49 -87 90 -17 21 -46 45 -64 52 -38 16 -99 100 -95 131 2
13 -6 27 -20 37 -31 22 -41 20 -35 -6 5 -17 -6 -9 -39 27 -207 232 -230 253
-260 241 -8 -3 -14 -19 -14 -35 0 -41 -9 -61 -26 -54 -11 4 -14 -5 -14 -38 0
-24 -1 -66 -1 -94 -1 -86 11 -144 31 -155 22 -12 424 -432 447 -467 28 -43 8
-33 -67 32 -40 36 -77 65 -82 65 -22 0 0 -33 78 -115 67 -72 83 -95 79 -112
-7 -29 6 -29 33 0 15 16 18 27 12 37 -12 19 -12 30 0 30 5 0 17 -12 27 -26 14
-22 15 -29 3 -47 -7 -12 -24 -42 -37 -67 -85 -161 -219 -382 -234 -388 -5 -2
-9 -11 -9 -21 0 -22 -50 -105 -148 -244 -80 -115 -86 -123 -168 -263 l-48 -82
-145 -27 c-80 -15 -154 -31 -163 -36 -10 -5 -31 -9 -47 -9 -17 0 -33 -4 -36
-10 -11 -17 27 -74 96 -143 88 -88 115 -99 226 -91 49 4 93 11 99 16 8 6 19
-3 34 -27 12 -19 26 -35 31 -35 4 0 16 15 25 33 25 48 44 62 96 65 26 2 69 9
95 16 247 69 408 110 550 141 92 19 302 68 465 107 313 75 328 76 328 27 0
-11 10 -23 23 -28 26 -10 207 -191 259 -259 18 -23 36 -42 40 -42 14 0 37 44
47 90 5 25 15 94 21 154 l12 108 -43 45 c-43 43 -43 45 -24 59 17 13 21 13 31
0 8 -12 18 -13 40 -7 62 19 120 32 142 32 13 -1 22 5 22 14 0 8 5 15 10 15 6
0 10 -4 10 -10 0 -5 7 -10 15 -10 8 0 15 7 15 15 0 18 17 20 22 3 3 -7 14 -4
34 11 21 15 122 44 330 96 164 40 319 76 344 80 92 14 130 27 130 44 0 43
-122 185 -165 193 -12 2 -21 13 -23 26 -4 23 -22 31 -22 10 0 -9 -18 -13 -57
-13 -76 -1 -173 -14 -200 -27 -12 -6 -44 -8 -72 -6 -28 3 -51 2 -51 -2 0 -4
-12 -12 -27 -19 -36 -17 -661 -171 -692 -171 -13 0 -36 11 -53 25 -44 37 -64
32 -33 -9 19 -26 19 -36 -1 -36 -16 0 -152 132 -324 316 -196 209 -366 396
-373 413 -10 21 38 124 72 155 12 11 21 25 21 32 0 7 23 41 50 75 28 34 50 73
50 85 0 14 10 30 25 40 14 9 25 25 25 35 0 11 9 28 20 39 11 11 20 33 20 48 0
18 22 63 57 118 62 97 143 243 143 256 0 4 7 16 16 26 9 9 45 64 81 122 55 90
63 110 59 139 -4 25 -1 38 12 48 16 12 16 14 0 27 -10 7 -18 20 -18 28 0 8 -3
18 -7 22 -4 4 -9 19 -11 33 -2 14 -10 40 -20 57 -9 17 -15 39 -13 49 2 17 -3
21 -51 31 -20 5 -28 2 -28 -8z m-495 -1906 c126 -134 247 -272 243 -275 -2 -1
-24 -5 -49 -9 -39 -6 -48 -4 -53 10 -4 10 -3 21 3 27 17 17 -1 48 -31 54 -31
6 -42 18 -43 47 0 12 -9 22 -22 26 -24 6 -233 227 -233 246 0 18 22 23 47 10
12 -6 74 -67 138 -136z m-189 41 c49 -39 98 -93 189 -206 26 -33 66 -79 88
-102 l41 -43 -44 0 c-25 -1 -63 -7 -85 -15 -22 -8 -52 -15 -67 -15 -18 0 -28
-5 -28 -15 0 -21 79 -19 195 4 88 18 90 18 104 0 14 -20 61 -26 61 -8 0 6 -5
20 -11 32 -9 18 -9 20 2 10 7 -7 22 -13 34 -13 12 0 29 -6 40 -13 16 -13 10
-16 -61 -35 -179 -48 -631 -151 -725 -165 -21 -3 -41 -1 -48 6 -8 8 -11 7 -11
-5 0 -11 -22 -21 -80 -36 -44 -11 -80 -17 -80 -13 0 4 29 54 65 111 35 58 86
142 112 188 121 210 229 372 248 372 7 0 34 -18 61 -39z"/> </g>
<g transform="translate(0.000000,608.000000) scale(0.100000,-0.100000)"
fill="#000000"><animateTransform attributeName="transform" attributeType='XML' type="scale" additive="sum" from="1 1" to="1.07 1.07" begin="0.0s" dur="1.2s" values="1 1; 1.07 1.07; 1 1" keyTimes = "0; 0.6; 1" repeatCount="indefinite"></animateTransform>

<path stroke='#000000' id = "line1" tranform='translate(100,200)' d="M4130 4521 c0 -5 -8 -11 -17 -15 -61 -21 -130 -78 -138 -115 -3 -15
-21 -36 -43 -50 -20 -14 -41 -30 -47 -35 -5 -6 -27 -20 -49 -31 -42 -21 -77
-62 -116 -134 -16 -30 -33 -47 -47 -49 -12 -2 -25 -12 -28 -22 -3 -10 -15 -22
-26 -25 -10 -4 -19 -11 -19 -17 0 -5 -39 -51 -86 -101 -47 -50 -110 -126 -140
-168 -30 -42 -73 -97 -97 -120 -48 -50 -87 -102 -104 -139 -5 -14 -27 -45 -47
-68 -57 -70 -42 -132 34 -132 28 0 47 14 132 97 54 54 101 108 104 120 4 13
12 23 20 23 8 0 14 6 14 13 0 8 23 40 50 73 132 154 202 233 281 318 47 50 98
110 112 134 15 23 31 42 36 42 29 0 300 340 301 377 0 7 -9 17 -19 23 -24 12
-61 13 -61 1z"/></g><g transform="translate(0.000000,608.000000) scale(0.100000,-0.100000)"
fill="#000000">
<animateTransform attributeName="transform" attributeType='XML' type="scale" additive="sum" from="1 1" to="1.07 1.07" begin="0.0s" dur="1.2s" values="1 1; 1.07 1.07; 1 1" keyTimes = "0; 0.6; 1" repeatCount="indefinite"></animateTransform>
<path d="M4600 4054 c-14 -7 -32 -14 -42 -14 -9 0 -43 -20 -75 -45 -33 -24
-71 -49 -84 -55 -13 -5 -31 -14 -39 -19 -8 -5 -33 -14 -55 -21 -22 -7 -48 -19
-57 -28 -10 -8 -18 -12 -18 -8 0 4 -13 -2 -29 -13 -16 -12 -36 -21 -44 -21 -9
0 -17 -10 -19 -22 -2 -16 -19 -31 -55 -48 -29 -14 -63 -35 -75 -46 -13 -12
-39 -27 -58 -34 -49 -19 -216 -137 -277 -194 -34 -34 -51 -46 -63 -46 -25 0
-242 -184 -254 -216 -7 -16 -5 -29 7 -48 26 -40 62 -44 118 -13 26 15 53 27
60 27 18 0 81 44 159 110 76 65 125 100 139 100 6 0 14 6 18 13 4 8 42 33 83
57 41 24 83 51 92 59 33 31 47 41 56 41 5 0 27 13 48 28 21 16 47 31 57 35 9
3 17 11 17 17 0 5 6 10 13 10 7 0 42 21 78 46 35 25 106 70 157 100 51 30 98
64 105 75 6 11 44 42 83 69 72 50 110 92 99 110 -9 15 -116 10 -145 -6z"/>
</g><g transform="translate(0.000000,608.000000) scale(0.100000,-0.100000)"
fill="#000000"><animateTransform attributeName="transform" attributeType='XML' type="scale" additive="sum" from="1 1" to="1.07 1.07" begin="0s" dur="1.2s" values="1 1; 1.07 1.07; 1 1" keyTimes = "0; 0.6; 1" repeatCount="indefinite"></animateTransform>
<path d="M4840 3453 c-43 -3 -110 -30 -110 -44 0 -4 -21 -9 -47 -12 -67 -7
-178 -34 -213 -52 -16 -8 -38 -15 -49 -15 -11 0 -24 -6 -28 -14 -9 -16 -108
-58 -116 -49 -3 3 -19 -4 -35 -16 -16 -11 -56 -27 -88 -35 -77 -18 -114 -33
-114 -46 0 -5 -7 -10 -15 -10 -25 0 -149 -53 -178 -77 -16 -13 -33 -23 -39
-23 -12 0 -107 -43 -148 -66 -14 -8 -53 -27 -87 -43 -71 -33 -98 -66 -84 -102
15 -39 47 -62 78 -56 43 8 178 60 278 107 50 23 113 51 142 61 28 11 67 31 87
44 20 13 55 29 78 35 39 10 328 128 370 151 10 5 25 9 33 9 8 0 15 5 15 10 0
6 11 10 24 10 39 0 187 57 233 90 23 17 64 40 90 52 59 25 83 45 83 70 0 14
-8 18 -37 18 -21 0 -47 2 -58 4 -11 1 -40 1 -65 -1z"/> </g>
</svg>